<?xml version="1.0" standalone="no"?>
<!DOCTYPE svg PUBLIC "-//W3C//DTD SVG 20010904//EN"
 "http://www.w3.org/TR/2001/REC-SVG-20010904/DTD/svg10.dtd">
<svg version="1.0" xmlns="http://www.w3.org/2000/svg"
 width="1075.000000pt" height="1024.000000pt" viewBox="0 0 1075.000000 1024.000000"
 preserveAspectRatio="xMidYMid meet">

<g transform="translate(0.000000,1024.000000) scale(0.100000,-0.100000)"
fill="#000000" stroke="none">
<path d="M4865 10233 c-734 -45 -1364 -207 -1990 -513 -507 -248 -925 -544
-1334 -945 -1161 -1138 -1702 -2705 -1496 -4326 108 -850 456 -1703 975 -2394
280 -372 658 -751 1024 -1026 1168 -879 2637 -1212 4086 -928 1788 351 3283
1679 3855 3424 79 239 151 537 190 784 5 29 10 39 15 30 15 -27 49 -195 61
-299 14 -126 6 -398 -16 -515 -8 -44 -14 -82 -14 -85 1 -13 64 160 108 296
138 424 217 862 243 1341 33 626 -71 1339 -267 1825 l-44 110 27 -18 c104 -66
201 -143 290 -233 118 -118 118 -120 -11 109 -713 1265 -1748 2219 -3033 2798
-171 77 -641 259 -822 318 -513 168 -1092 258 -1622 252 -96 -1 -197 -3 -225
-5z m1571 -427 c287 -71 583 -181 899 -336 244 -120 378 -197 601 -345 280
-186 457 -330 703 -570 372 -364 653 -735 878 -1161 99 -188 99 -188 19 -110
-75 72 -238 187 -337 237 -32 16 -61 29 -64 29 -3 0 19 -46 49 -102 159 -299
306 -743 381 -1153 108 -591 112 -1175 10 -1762 -44 -254 -167 -757 -235 -963
-338 -1027 -1011 -1922 -1865 -2482 -641 -421 -1340 -653 -2190 -729 -205 -18
-729 -16 -955 5 -430 39 -555 62 -778 142 -426 155 -913 421 -1298 710 -169
128 -457 379 -577 504 -344 359 -714 919 -946 1432 -39 86 -71 160 -71 164 0
4 24 -27 53 -68 200 -291 480 -559 818 -784 156 -103 462 -261 619 -318 356
-130 631 -179 990 -180 744 0 1327 234 1806 725 321 330 560 735 735 1249 43
125 124 420 116 425 -1 1 -65 -2 -142 -7 -178 -12 -611 -3 -825 17 -863 81
-1556 329 -2055 735 -197 160 -378 407 -455 619 -17 45 -30 86 -30 90 0 5 109
7 253 4 596 -13 1102 70 1573 257 901 359 1568 1107 1914 2148 33 97 73 233
91 301 37 147 35 162 -41 263 -96 127 -324 305 -608 476 -46 27 -80 52 -75 55
22 13 169 48 258 62 167 25 435 16 578 -20 32 -9 34 2 43 263 4 117 10 212 14
212 3 0 69 -15 146 -34z"/>
<path d="M6423 6876 c-109 -25 -190 -71 -273 -155 -42 -42 -88 -99 -103 -128
-35 -66 -67 -191 -67 -263 l0 -57 46 -7 c26 -3 95 -6 155 -6 262 0 454 78 687
280 58 50 171 176 180 199 5 15 -151 89 -243 116 -112 33 -286 43 -382 21z"/>
</g>
</svg>
